<?xml version="1.0" encoding="UTF-8" standalone="no"?>
<!-- Created with Inkscape (http://www.inkscape.org/) -->

<svg
   xmlns:dc="http://purl.org/dc/elements/1.1/"
   xmlns:cc="http://creativecommons.org/ns#"
   xmlns:rdf="http://www.w3.org/1999/02/22-rdf-syntax-ns#"
   xmlns:svg="http://www.w3.org/2000/svg"
   xmlns="http://www.w3.org/2000/svg"
   xmlns:sodipodi="http://sodipodi.sourceforge.net/DTD/sodipodi-0.dtd"
   xmlns:inkscape="http://www.inkscape.org/namespaces/inkscape"
   width="126.73489mm"
   height="35.763199mm"
   viewBox="0 0 126.73489 35.763199"
   version="1.1"
   id="svg8"
   inkscape:version="0.92.4 (unknown)"
   sodipodi:docname="logo.svg">
  <defs
     id="defs2" />
  <sodipodi:namedview
     id="base"
     pagecolor="#ffffff"
     bordercolor="#666666"
     borderopacity="1.0"
     inkscape:pageopacity="0.0"
     inkscape:pageshadow="2"
     inkscape:zoom="1.4"
     inkscape:cx="76.012243"
     inkscape:cy="-18.340446"
     inkscape:document-units="mm"
     inkscape:current-layer="layer1"
     showgrid="false"
     inkscape:window-width="2560"
     inkscape:window-height="1385"
     inkscape:window-x="0"
     inkscape:window-y="27"
     inkscape:window-maximized="1" />
  <metadata
     id="metadata5">
    <rdf:RDF>
      <cc:Work
         rdf:about="">
        <dc:format>image/svg+xml</dc:format>
        <dc:type
           rdf:resource="http://purl.org/dc/dcmitype/StillImage" />
        <dc:title />
      </cc:Work>
    </rdf:RDF>
  </metadata>
  <g
     inkscape:label="Layer 1"
     inkscape:groupmode="layer"
     id="layer1"
     transform="translate(-36.602656,-29.385983)">
    <g
       aria-label="XDCS"
       style="font-style:normal;font-weight:normal;font-size:10.58333302px;line-height:1.25;font-family:sans-serif;letter-spacing:0px;word-spacing:0px;fill:#000000;fill-opacity:1;stroke:none;stroke-width:0.26458332"
       id="text817">
      <path
         d="m 36.805856,29.792383 h 11.5316 l 22.199599,34.9504 h -11.5824 z m 18.592799,7.112 3.8608,-7.112 h 11.1252 l -9.652,15.5448 z m -9.042399,11.9888 5.283199,8.382 -3.911599,7.4676 h -11.1252 z"
         style="font-style:normal;font-variant:normal;font-weight:normal;font-stretch:normal;font-size:50.79999924px;font-family:'Saira Stencil One';-inkscape-font-specification:'Saira Stencil One, Normal';font-variant-ligatures:normal;font-variant-caps:normal;font-variant-numeric:normal;font-feature-settings:normal;text-align:start;writing-mode:lr-tb;text-anchor:start;stroke-width:0.26458332"
         id="path814" />
      <path
         d="m 74.079561,29.792383 h 10.16 v 34.9504 h -10.16 z m 12.2936,27.178 h 0.4064 q 2.4892,0 3.5052,-0.2032 1.0668,-0.254 1.5748,-1.1176 0.5588,-0.9144 0.6096,-2.8956 0.1016,-2.54 0.1016,-5.4864 0,-2.8956 -0.1016,-5.5372 -0.1016,-1.9812 -0.6604,-2.8956 -0.508,-0.9144 -1.6764,-1.1176 -1.1684,-0.1524 -3.3528,-0.1524 h -0.4064 v -7.7724 h 0.4064 q 4.064,0 6.7564,0.3556 2.7432,0.3556 4.5212,1.1176 1.7272,0.762 2.743199,2.0828 1.016,1.3208 1.4732,3.302 0.4064,1.778 0.508,4.2164 0.1524,2.3876 0.1524,6.4008 0,4.064 -0.1524,6.4516 -0.1016,2.3876 -0.508,4.1656 -0.4572,1.9812 -1.4732,3.302 -1.015999,1.3208 -2.743199,2.0828 -1.778,0.762 -4.5212,1.1176 -2.6924,0.3556 -6.7564,0.3556 h -0.4064 z"
         style="font-style:normal;font-variant:normal;font-weight:normal;font-stretch:normal;font-size:50.79999924px;font-family:'Saira Stencil One';-inkscape-font-specification:'Saira Stencil One, Normal';font-variant-ligatures:normal;font-variant-caps:normal;font-variant-numeric:normal;font-feature-settings:normal;text-align:start;writing-mode:lr-tb;text-anchor:start;stroke-width:0.26458332"
         id="path816" />
      <path
         d="m 120.19009,29.436783 q 0.4064,-0.0508 1.27,-0.0508 h 1.3208 q 3.4036,0 6.6548,0.508 1.6764,0.254 2.5908,0.508 v 7.2644 q -0.762,-0.0508 -2.54,-0.254 -2.3876,-0.254 -4.1656,-0.254 -1.9812,0 -3.2004,0.1524 -1.1684,0.1016 -1.9304,0.4064 z m 2.5908,35.7124 q -5.08,0 -8.0772,-0.8636 -2.9464,-0.9144 -4.4704,-2.9972 -1.4732,-1.9812 -2.032,-5.2324 -0.508,-3.302 -0.508,-8.7884 0,-4.826 0.3556,-7.8232 0.4064,-2.9972 1.4224,-5.0292 1.0668,-2.0828 3.0988,-3.2004 2.0828,-1.1684 5.4864,-1.5748 v 17.6276 q 0,2.8448 0.1016,5.4864 0.1016,2.032 0.762,3.048 0.7112,1.016 2.1844,1.27 1.4224,0.3048 4.2164,0.3048 2.8956,0 4.9276,-0.254 0.8128,-0.0508 1.9812,-0.254 v 7.366 q -2.4892,0.5588 -5.6388,0.762 -1.7272,0.1524 -3.81,0.1524 z"
         style="font-style:normal;font-variant:normal;font-weight:normal;font-stretch:normal;font-size:50.79999924px;font-family:'Saira Stencil One';-inkscape-font-specification:'Saira Stencil One, Normal';font-variant-ligatures:normal;font-variant-caps:normal;font-variant-numeric:normal;font-feature-settings:normal;text-align:start;writing-mode:lr-tb;text-anchor:start;stroke-width:0.26458332"
         id="path818" />
      <path
         d="m 161.55954,37.818783 q -1.6764,-0.2032 -5.8928,-0.5588 -2.3368,-0.1016 -3.7592,-0.1016 -1.8288,0 -3.4544,0.1016 v -7.874 h 1.27 q 4.1656,0 8.636,0.5588 1.4224,0.2032 3.2004,0.5588 z m -8.382,16.6116 q 0,-1.0668 -0.1524,-1.524 -0.1524,-0.508 -0.508,-0.6604 -0.3556,-0.2032 -1.2192,-0.3048 l -6.2484,-0.762 q -5.5372,-0.6096 -7.4676,-3.6068 -0.8636,-1.27 -1.1684,-3.0988 -0.3048,-1.8288 -0.3048,-4.4704 0,-5.6388 2.8956,-8.128 2.3368,-2.032 7.3152,-2.3876 v 10.2108 q 0,0.6604 0.0508,1.1176 0.0508,0.4572 0.2032,0.7112 0.1524,0.3048 0.508,0.4572 0.3556,0.1016 1.0668,0.1524 l 7.0104,0.8636 q 2.1844,0.3048 3.556,0.762 1.3716,0.4572 2.3368,1.4224 2.286,2.3876 2.286,8.4836 0,6.4516 -2.8448,9.0424 -1.27,1.1684 -3.0988,1.7272 -1.778,0.508 -4.2164,0.6604 z m -2.6924,10.7188 q -5.08,0 -9.4488,-0.4572 -2.5908,-0.254 -3.9116,-0.508 v -7.4168 q 2.9972,0.254 6.858,0.508 2.4384,0.1016 3.4544,0.1016 2.7432,0 3.6068,-0.1524 v 7.9248 z"
         style="font-style:normal;font-variant:normal;font-weight:normal;font-stretch:normal;font-size:50.79999924px;font-family:'Saira Stencil One';-inkscape-font-specification:'Saira Stencil One, Normal';font-variant-ligatures:normal;font-variant-caps:normal;font-variant-numeric:normal;font-feature-settings:normal;text-align:start;writing-mode:lr-tb;text-anchor:start;stroke-width:0.26458332"
         id="path820" />
    </g>
  </g>
</svg>
