<?xml version="1.0" standalone="no"?>
<!DOCTYPE svg PUBLIC "-//W3C//DTD SVG 20010904//EN"
 "http://www.w3.org/TR/2001/REC-SVG-20010904/DTD/svg10.dtd">
<svg version="1.0" xmlns="http://www.w3.org/2000/svg"
 width="528.000000pt" height="528.000000pt" viewBox="0 0 528.000000 528.000000"
 preserveAspectRatio="xMidYMid meet">
<metadata>
Created by potrace 1.11, written by Peter Selinger 2001-2013
</metadata>
<g transform="translate(0.000000,528.000000) scale(0.100000,-0.100000)"
fill="#000000" stroke="none">
<path d="M120 5274 c0 -4 750 -1192 1667 -2640 l1667 -2634 873 0 873 0 -44
68 c-35 54 -1155 1820 -3116 4912 l-188 295 -866 3 c-476 1 -866 -1 -866 -4z"/>
<path d="M3472 5228 c-118 -209 -553 -1021 -550 -1027 7 -19 793 -1260 798
-1261 5 0 1441 2312 1448 2331 2 5 -344 9 -831 9 l-836 0 -29 -52z"/>
<path d="M1537 2368 c-9 -12 -329 -534 -712 -1158 -383 -624 -708 -1152 -721
-1173 l-24 -37 839 0 839 0 293 562 c162 310 293 566 291 571 -2 6 -779 1245
-788 1255 -1 2 -9 -7 -17 -20z"/>
</g>
</svg>
